{
	"asset":{
		"generator":"Khronos glTF Blender I/O v4.4.56",
		"version":"2.0"
	},
	"scene":0,
	"scenes":[
		{
			"name":"Scene",
			"nodes":[
				1
			]
		}
	],
	"nodes":[
		{
			"mesh":0,
			"name":"model",
			"rotation":[
				0.70710688829422,
				0,
				0,
				0.7071066498756409
			],
			"translation":[
				0,
				0,
				-0.8015492558479309
			]
		},
		{
			"children":[
				0
			],
			"name":"base_basic_shaded.glb"
		}
	],
	"materials":[
		{
			"doubleSided":true,
			"emissiveFactor":[
				0.001373999984934926,
				0.022079000249505043,
				0.8134769797325134
			],
			"name":"model",
			"pbrMetallicRoughness":{
				"baseColorFactor":[
					0.0013742446899414062,
					0.0220794677734375,
					0.8134765625,
					1
				],
				"metallicFactor":0
			}
		}
	],
	"meshes":[
		{
			"name":"Mesh_0",
			"primitives":[
				{
					"attributes":{
						"POSITION":0,
						"NORMAL":1,
						"TEXCOORD_0":2
					},
					"indices":3,
					"material":0
				}
			]
		}
	],
	"accessors":[
		{
			"bufferView":0,
			"componentType":5126,
			"count":49406,
			"max":[
				0.7791760563850403,
				1.9006524085998535,
				0.10292389988899231
			],
			"min":[
				-0.779478132724762,
				-2.983749254781287e-05,
				-0.10289222002029419
			],
			"type":"VEC3"
		},
		{
			"bufferView":1,
			"componentType":5126,
			"count":49406,
			"type":"VEC3"
		},
		{
			"bufferView":2,
			"componentType":5126,
			"count":49406,
			"type":"VEC2"
		},
		{
			"bufferView":3,
			"componentType":5123,
			"count":176400,
			"type":"SCALAR"
		}
	],
	"bufferViews":[
		{
			"buffer":0,
			"byteLength":592872,
			"byteOffset":0,
			"target":34962
		},
		{
			"buffer":0,
			"byteLength":592872,
			"byteOffset":592872,
			"target":34962
		},
		{
			"buffer":0,
			"byteLength":395248,
			"byteOffset":1185744,
			"target":34962
		},
		{
			"buffer":0,
			"byteLength":352800,
			"byteOffset":1580992,
			"target":34963
		}
	],
	"buffers":[
		{
			"byteLength":1933792,
			"uri":"Drone.bin"
		}
	]
}
