{
    "asset": {
        "version": "2.0",
        "generator": "Open Asset Import Library (assimp v5.2.cf7d3637)"
    },
    "extensionsUsed": [
        "KHR_materials_volume",
        "FB_ngon_encoding"
    ],
    "accessors": [
        {
            "bufferView": 0,
            "byteOffset": 0,
            "componentType": 5126,
            "count": 252000,
            "type": "VEC3",
            "max": [
                0.7791748046875,
                1.9006524085998536,
                0.10292389988899231
            ],
            "min": [
                -0.7794828414916992,
                -0.000007105242730176542,
                -0.10289394110441208
            ]
        },
        {
            "bufferView": 1,
            "byteOffset": 0,
            "componentType": 5126,
            "count": 252000,
            "type": "VEC3",
            "max": [
                0.9999997615814209,
                0.9999819993972778,
                0.9999997615814209
            ],
            "min": [
                -0.9999997615814209,
                -0.9999984502792358,
                -0.9999997615814209
            ]
        },
        {
            "bufferView": 2,
            "byteOffset": 0,
            "componentType": 5126,
            "count": 252000,
            "type": "VEC2",
            "max": [
                1.0,
                1.0
            ],
            "min": [
                0.0,
                5.960464477539063e-8
            ]
        },
        {
            "bufferView": 3,
            "byteOffset": 0,
            "componentType": 5125,
            "count": 252000,
            "type": "SCALAR",
            "max": [
                251999
            ],
            "min": [
                0
            ]
        }
    ],
    "buffers": [
        {
            "byteLength": 9072000,
            "uri": "drone.bin"
        }
    ],
    "bufferViews": [
        {
            "buffer": 0,
            "byteOffset": 0,
            "byteLength": 3024000,
            "target": 34962
        },
        {
            "buffer": 0,
            "byteOffset": 3024000,
            "byteLength": 3024000,
            "target": 34962
        },
        {
            "buffer": 0,
            "byteOffset": 6048000,
            "byteLength": 2016000,
            "target": 34962
        },
        {
            "buffer": 0,
            "byteOffset": 8064000,
            "byteLength": 1008000,
            "target": 34963
        }
    ],
    "materials": [
        {
            "name": "model",
            "pbrMetallicRoughness": {
                "baseColorFactor": [
                    0.0013742446899414063,
                    0.0220794677734375,
                    0.8134765625,
                    1.0
                ],
                "metallicFactor": 0.0
            },
            "emissiveFactor": [
                0.001373999984934926,
                0.022079000249505044,
                0.8134769797325134
            ],
            "doubleSided": true
        },
        {
            "name": "material"
        }
    ],
    "meshes": [
        {
            "name": "meshes[0]",
            "primitives": [
                {
                    "mode": 4,
                    "material": 0,
                    "indices": 3,
                    "attributes": {
                        "POSITION": 0,
                        "NORMAL": 1,
                        "TEXCOORD_0": 2
                    }
                }
            ]
        }
    ],
    "nodes": [
        {
            "name": "ROOT",
            "children": [
                1,
                2
            ]
        },
        {
            "name": "Directional Light",
            "matrix": [
                1.0,
                0.0,
                0.0,
                0.0,
                0.0,
                1.0,
                0.0,
                0.0,
                0.0,
                0.0,
                1.0,
                0.0,
                0.44543540477752688,
                0.08908708393573761,
                0.8908708095550537,
                1.0
            ],
            "extras": {
                "extensions": {
                    "KHR_lights_punctual": {
                        "light": 0
                    }
                }
            }
        },
        {
            "name": "Drone 62K Vertices.glb",
            "matrix": [
                -1.0,
                0.0,
                -1.2246468525851679e-16,
                0.0,
                0.0,
                1.0,
                0.0,
                0.0,
                1.2246468525851679e-16,
                0.0,
                -1.0,
                0.0,
                0.0,
                0.0,
                0.0,
                1.0
            ],
            "children": [
                3
            ]
        },
        {
            "name": "base_basic_shadedglb",
            "children": [
                4
            ],
            "extras": {
                "name": "base_basic_shaded.glb"
            }
        },
        {
            "name": "model",
            "matrix": [
                1.0,
                0.0,
                0.0,
                0.0,
                0.0,
                -3.029462618542311e-7,
                0.9999999403953552,
                0.0,
                0.0,
                -0.9999999403953552,
                -3.029462618542311e-7,
                0.0,
                0.0,
                0.0,
                -0.8015492558479309,
                1.0
            ],
            "mesh": 0,
            "extras": {
                "name": "model"
            }
        }
    ],
    "scenes": [
        {
            "nodes": [
                0
            ]
        }
    ],
    "scene": 0
}
